<svg width="125" height="54" viewBox="0 0 125 54" fill="none" xmlns="http://www.w3.org/2000/svg">
<path d="M99.3333 35.25L110.333 27L99.3333 18.75V35.25ZM103 8.66663C92.88 8.66663 84.6667 16.88 84.6667 27C84.6667 37.12 92.88 45.3333 103 45.3333C113.12 45.3333 121.333 37.12 121.333 27C121.333 16.88 113.12 8.66663 103 8.66663ZM103 41.6666C94.915 41.6666 88.3333 35.085 88.3333 27C88.3333 18.915 94.915 12.3333 103 12.3333C111.085 12.3333 117.667 18.915 117.667 27C117.667 35.085 111.085 41.6666 103 41.6666Z" fill="#E15B25"/>
<path d="M104 10.5C93.9116 10.7924 86 17.204 86 27C86 36.796 93.9116 43.2076 104 43.5" stroke="white" stroke-width="5"/>
<path d="M27.225 42H23.355L22.545 27.915C22.155 22.095 21.99 17.85 22.05 15.18L16.785 38.49H12.96L7.425 15.135L7.47 17.205C7.47 19.545 7.35 23.205 7.11 28.185L6.345 42H2.475L4.59 10.995H9.9L14.94 33.72L19.71 10.995H25.155L27.225 42ZM49.327 42H45.907L45.637 38.67C44.887 39.96 44.032 40.935 43.072 41.595C42.142 42.225 41.047 42.54 39.787 42.54C38.077 42.54 36.712 41.955 35.692 40.785C34.672 39.615 34.162 38.085 34.162 36.195V18.285H38.122V35.79C38.122 38.22 38.977 39.435 40.687 39.435C41.677 39.435 42.547 39.09 43.297 38.4C44.047 37.68 44.737 36.69 45.367 35.43V18.285H49.327V42ZM62.9852 17.79C65.5952 17.79 67.8302 18.675 69.6902 20.445L67.9802 22.74C67.1402 22.11 66.3302 21.645 65.5502 21.345C64.7702 21.015 63.9452 20.85 63.0752 20.85C62.0252 20.85 61.1852 21.15 60.5552 21.75C59.9552 22.32 59.6552 23.115 59.6552 24.135C59.6552 25.125 59.9552 25.905 60.5552 26.475C61.1552 27.045 62.2952 27.63 63.9752 28.23C66.1352 29.01 67.7252 29.94 68.7452 31.02C69.7652 32.1 70.2752 33.57 70.2752 35.43C70.2752 37.68 69.5102 39.435 67.9802 40.695C66.4802 41.925 64.6052 42.54 62.3552 42.54C59.3552 42.54 56.8502 41.505 54.8402 39.435L56.9102 37.23C58.5902 38.7 60.3752 39.435 62.2652 39.435C63.4652 39.435 64.4252 39.105 65.1452 38.445C65.8652 37.785 66.2252 36.855 66.2252 35.655C66.2252 34.845 66.0902 34.185 65.8202 33.675C65.5502 33.165 65.0852 32.7 64.4252 32.28C63.7652 31.86 62.8052 31.425 61.5452 30.975C59.4452 30.195 57.9452 29.28 57.0452 28.23C56.1452 27.15 55.6952 25.83 55.6952 24.27C55.6952 23.07 55.9952 21.975 56.5952 20.985C57.2252 19.995 58.0952 19.215 59.2052 18.645C60.3152 18.075 61.5752 17.79 62.9852 17.79ZM80.2013 18.285V42H76.2413V18.285H80.2013ZM78.1763 7.035C78.9863 7.035 79.6313 7.29 80.1113 7.8C80.5913 8.31 80.8313 8.97 80.8313 9.78C80.8313 10.53 80.5763 11.16 80.0663 11.67C79.5863 12.18 78.9563 12.435 78.1763 12.435C77.3963 12.435 76.7513 12.18 76.2413 11.67C75.7613 11.16 75.5213 10.53 75.5213 9.78C75.5213 9 75.7613 8.355 76.2413 7.845C76.7513 7.305 77.3963 7.035 78.1763 7.035Z" fill="white"/>
<path d="M27.225 42V43H28.294L28.2228 41.9334L27.225 42ZM23.355 42L22.3567 42.0574L22.4109 43H23.355V42ZM22.545 27.915L23.5434 27.8576L23.5428 27.8481L22.545 27.915ZM22.05 15.18L23.0497 15.2025L21.0746 14.9597L22.05 15.18ZM16.785 38.49V39.49H17.5843L17.7604 38.7103L16.785 38.49ZM12.96 38.49L11.987 38.7206L12.1693 39.49H12.96V38.49ZM7.425 15.135L8.39805 14.9044L6.42524 15.1567L7.425 15.135ZM7.47 17.205H8.47V17.1941L8.46976 17.1833L7.47 17.205ZM7.11 28.185L8.1085 28.2403L8.10884 28.2331L7.11 28.185ZM6.345 42V43H7.29116L7.34347 42.0553L6.345 42ZM2.475 42L1.47732 41.9319L1.40446 43H2.475V42ZM4.59 10.995V9.995H3.65589L3.59232 10.9269L4.59 10.995ZM9.9 10.995L10.8763 10.7785L10.7025 9.995H9.9V10.995ZM14.94 33.72L13.9637 33.9365L15.9187 33.9254L14.94 33.72ZM19.71 10.995V9.995H18.8981L18.7313 10.7896L19.71 10.995ZM25.155 10.995L26.1528 10.9284L26.0905 9.995H25.155V10.995ZM27.225 41H23.355V43H27.225V41ZM24.3534 41.9426L23.5434 27.8576L21.5467 27.9724L22.3567 42.0574L24.3534 41.9426ZM23.5428 27.8481C23.153 22.0316 22.9908 17.8246 23.0497 15.2025L21.0503 15.1575C20.9892 17.8754 21.157 22.1584 21.5472 27.9819L23.5428 27.8481ZM21.0746 14.9597L15.8096 38.2697L17.7604 38.7103L23.0254 15.4003L21.0746 14.9597ZM16.785 37.49H12.96V39.49H16.785V37.49ZM13.933 38.2594L8.39805 14.9044L6.45195 15.3656L11.987 38.7206L13.933 38.2594ZM6.42524 15.1567L6.47024 17.2267L8.46976 17.1833L8.42476 15.1133L6.42524 15.1567ZM6.47 17.205C6.47 19.5194 6.35105 23.1592 6.11116 28.1369L8.10884 28.2331C8.34895 23.2508 8.47 19.5706 8.47 17.205H6.47ZM6.11153 28.1297L5.34653 41.9447L7.34347 42.0553L8.10847 28.2403L6.11153 28.1297ZM6.345 41H2.475V43H6.345V41ZM3.47268 42.0681L5.58768 11.0631L3.59232 10.9269L1.47732 41.9319L3.47268 42.0681ZM4.59 11.995H9.9V9.995H4.59V11.995ZM8.92372 11.2115L13.9637 33.9365L15.9163 33.5035L10.8763 10.7785L8.92372 11.2115ZM15.9187 33.9254L20.6887 11.2004L18.7313 10.7896L13.9613 33.5146L15.9187 33.9254ZM19.71 11.995H25.155V9.995H19.71V11.995ZM24.1572 11.0616L26.2272 42.0666L28.2228 41.9334L26.1528 10.9284L24.1572 11.0616ZM49.327 42V43H50.327V42H49.327ZM45.907 42L44.9103 42.0808L44.9848 43H45.907V42ZM45.637 38.67L46.6338 38.5892L46.3759 35.4095L44.7725 38.1674L45.637 38.67ZM43.072 41.595L43.6329 42.4229L43.6386 42.419L43.072 41.595ZM35.692 40.785L36.4458 40.1279L35.692 40.785ZM34.162 18.285V17.285H33.162V18.285H34.162ZM38.122 18.285H39.122V17.285H38.122V18.285ZM43.297 38.4L43.9741 39.1359L43.9819 39.1287L43.9896 39.1214L43.297 38.4ZM45.367 35.43L46.2615 35.8772L46.367 35.6661V35.43H45.367ZM45.367 18.285V17.285H44.367V18.285H45.367ZM49.327 18.285H50.327V17.285H49.327V18.285ZM49.327 41H45.907V43H49.327V41ZM46.9038 41.9192L46.6338 38.5892L44.6403 38.7508L44.9103 42.0808L46.9038 41.9192ZM44.7725 38.1674C44.0767 39.3642 43.3144 40.2148 42.5055 40.771L43.6386 42.419C44.7496 41.6552 45.6974 40.5558 46.5015 39.1726L44.7725 38.1674ZM42.5112 40.7671C41.7665 41.2716 40.8723 41.54 39.787 41.54V43.54C41.2217 43.54 42.5176 43.1784 43.6329 42.4229L42.5112 40.7671ZM39.787 41.54C38.333 41.54 37.2552 41.0563 36.4458 40.1279L34.9383 41.4421C36.1688 42.8537 37.821 43.54 39.787 43.54V41.54ZM36.4458 40.1279C35.6173 39.1775 35.162 37.8983 35.162 36.195H33.162C33.162 38.2717 33.7268 40.0525 34.9383 41.4421L36.4458 40.1279ZM35.162 36.195V18.285H33.162V36.195H35.162ZM34.162 19.285H38.122V17.285H34.162V19.285ZM37.122 18.285V35.79H39.122V18.285H37.122ZM37.122 35.79C37.122 37.0917 37.3455 38.2467 37.9455 39.0992C38.5906 40.0161 39.5632 40.435 40.687 40.435V38.435C40.1008 38.435 39.7909 38.2464 39.5811 37.9483C39.326 37.5858 39.122 36.9183 39.122 35.79H37.122ZM40.687 40.435C41.9359 40.435 43.0455 39.9902 43.9741 39.1359L42.62 37.6641C42.0486 38.1898 41.4182 38.435 40.687 38.435V40.435ZM43.9896 39.1214C44.8455 38.2997 45.5973 37.2056 46.2615 35.8772L44.4726 34.9828C43.8768 36.1744 43.2485 37.0603 42.6045 37.6786L43.9896 39.1214ZM46.367 35.43V18.285H44.367V35.43H46.367ZM45.367 19.285H49.327V17.285H45.367V19.285ZM48.327 18.285V42H50.327V18.285H48.327ZM69.6902 20.445L70.4921 21.0425L71.0218 20.3317L70.3796 19.7206L69.6902 20.445ZM67.9802 22.74L67.3802 23.54L68.1828 24.1419L68.7821 23.3375L67.9802 22.74ZM65.5502 21.345L65.1606 22.266L65.1758 22.2724L65.1913 22.2783L65.5502 21.345ZM60.5552 21.75L61.244 22.475L61.2449 22.4741L60.5552 21.75ZM60.5552 26.475L61.244 25.75L60.5552 26.475ZM63.9752 28.23L64.3149 27.2894L64.3116 27.2883L63.9752 28.23ZM68.7452 31.02L69.4723 30.3334L68.7452 31.02ZM67.9802 40.695L68.6143 41.4683L68.6159 41.4669L67.9802 40.695ZM54.8402 39.435L54.1112 38.7506L53.4577 39.4467L54.1228 40.1316L54.8402 39.435ZM56.9102 37.23L57.5687 36.4774L56.8421 35.8416L56.1812 36.5456L56.9102 37.23ZM65.1452 38.445L65.821 39.1822L65.1452 38.445ZM65.8202 33.675L64.9364 34.1429L65.8202 33.675ZM64.4252 32.28L63.8884 33.1237L64.4252 32.28ZM61.5452 30.975L61.197 31.9125L61.2089 31.9167L61.5452 30.975ZM57.0452 28.23L56.2769 28.8702L56.286 28.8808L57.0452 28.23ZM56.5952 20.985L55.7516 20.4481L55.7457 20.4573L55.74 20.4667L56.5952 20.985ZM59.2052 18.645L58.7484 17.7554H58.7484L59.2052 18.645ZM62.9852 18.79C65.3433 18.79 67.3302 19.5796 69.0009 21.1694L70.3796 19.7206C68.3303 17.7704 65.8472 16.79 62.9852 16.79V18.79ZM68.8884 19.8475L67.1784 22.1425L68.7821 23.3375L70.4921 21.0425L68.8884 19.8475ZM68.5802 21.94C67.6844 21.2681 66.794 20.752 65.9092 20.4117L65.1913 22.2783C65.8664 22.538 66.5961 22.9519 67.3802 23.54L68.5802 21.94ZM65.9399 20.424C65.0332 20.0404 64.0754 19.85 63.0752 19.85V21.85C63.8151 21.85 64.5073 21.9896 65.1606 22.266L65.9399 20.424ZM63.0752 19.85C61.8248 19.85 60.7187 20.2134 59.8656 21.0259L61.2449 22.4741C61.6518 22.0866 62.2257 21.85 63.0752 21.85V19.85ZM59.8665 21.025C59.0232 21.8261 58.6552 22.9091 58.6552 24.135H60.6552C60.6552 23.3209 60.8873 22.8139 61.244 22.475L59.8665 21.025ZM58.6552 24.135C58.6552 25.341 59.0292 26.4046 59.8665 27.2L61.244 25.75C60.8812 25.4054 60.6552 24.909 60.6552 24.135H58.6552ZM59.8665 27.2C60.6299 27.9252 61.9448 28.5667 63.6389 29.1717L64.3116 27.2883C62.6457 26.6933 61.6806 26.1648 61.244 25.75L59.8665 27.2ZM63.6356 29.1706C65.7211 29.9237 67.1485 30.7858 68.0182 31.7066L69.4723 30.3334C68.3019 29.0942 66.5493 28.0963 64.3149 27.2894L63.6356 29.1706ZM68.0182 31.7066C68.8216 32.5572 69.2752 33.758 69.2752 35.43H71.2752C71.2752 33.382 70.7089 31.6428 69.4723 30.3334L68.0182 31.7066ZM69.2752 35.43C69.2752 37.4266 68.6109 38.8801 67.3445 39.9231L68.6159 41.4669C70.4095 39.9899 71.2752 37.9334 71.2752 35.43H69.2752ZM67.3462 39.9217C66.0528 40.9822 64.4129 41.54 62.3552 41.54V43.54C64.7976 43.54 66.9076 42.8678 68.6143 41.4683L67.3462 39.9217ZM62.3552 41.54C59.6135 41.54 57.3711 40.606 55.5577 38.7384L54.1228 40.1316C56.3293 42.404 59.097 43.54 62.3552 43.54V41.54ZM55.5693 40.1194L57.6393 37.9144L56.1812 36.5456L54.1112 38.7506L55.5693 40.1194ZM56.2517 37.9826C58.0792 39.5816 60.0904 40.435 62.2652 40.435V38.435C60.66 38.435 59.1013 37.8184 57.5687 36.4774L56.2517 37.9826ZM62.2652 40.435C63.6555 40.435 64.8766 40.0478 65.821 39.1822L64.4695 37.7078C63.9738 38.1622 63.275 38.435 62.2652 38.435V40.435ZM65.821 39.1822C66.7935 38.2906 67.2252 37.0663 67.2252 35.655H65.2252C65.2252 36.6437 64.937 37.2794 64.4695 37.7078L65.821 39.1822ZM67.2252 35.655C67.2252 34.744 67.0749 33.9076 66.704 33.2071L64.9364 34.1429C65.1056 34.4624 65.2252 34.946 65.2252 35.655H67.2252ZM66.704 33.2071C66.3291 32.4989 65.7184 31.9176 64.9621 31.4363L63.8884 33.1237C64.452 33.4824 64.7714 33.8311 64.9364 34.1429L66.704 33.2071ZM64.9621 31.4363C64.2102 30.9578 63.1698 30.4933 61.8816 30.0333L61.2089 31.9167C62.4407 32.3567 63.3203 32.7622 63.8884 33.1237L64.9621 31.4363ZM61.8934 30.0376C59.8643 29.2839 58.5457 28.444 57.8045 27.5792L56.286 28.8808C57.3448 30.116 59.0262 31.1061 61.197 31.9124L61.8934 30.0376ZM57.8135 27.5898C57.0799 26.7095 56.6952 25.6234 56.6952 24.27H54.6952C54.6952 26.0366 55.2106 27.5905 56.277 28.8702L57.8135 27.5898ZM56.6952 24.27C56.6952 23.2457 56.9487 22.3311 57.4504 21.5033L55.74 20.4667C55.0417 21.6189 54.6952 22.8943 54.6952 24.27H56.6952ZM57.4389 21.5219C57.9675 20.6913 58.6996 20.0288 59.662 19.5346L58.7484 17.7554C57.4908 18.4012 56.483 19.2987 55.7516 20.4481L57.4389 21.5219ZM59.662 19.5346C60.6133 19.0461 61.7133 18.79 62.9852 18.79V16.79C61.4372 16.79 60.0172 17.1039 58.7484 17.7554L59.662 19.5346ZM80.2013 18.285H81.2013V17.285H80.2013V18.285ZM80.2013 42V43H81.2013V42H80.2013ZM76.2413 42H75.2413V43H76.2413V42ZM76.2413 18.285V17.285H75.2413V18.285H76.2413ZM80.1113 7.8L80.8395 7.11463V7.11463L80.1113 7.8ZM80.0663 11.67L79.3591 10.9629L79.3484 10.9736L79.3381 10.9846L80.0663 11.67ZM76.2413 11.67L75.5131 12.3554L75.5234 12.3664L75.5341 12.3771L76.2413 11.67ZM76.2413 7.845L75.5142 7.15837L75.5131 7.15963L76.2413 7.845ZM79.2013 18.285V42H81.2013V18.285H79.2013ZM80.2013 41H76.2413V43H80.2013V41ZM77.2413 42V18.285H75.2413V42H77.2413ZM76.2413 19.285H80.2013V17.285H76.2413V19.285ZM78.1763 8.035C78.7577 8.035 79.1221 8.20811 79.3831 8.48536L80.8395 7.11463C80.1404 6.37189 79.2148 6.035 78.1763 6.035V8.035ZM79.3831 8.48536C79.6612 8.7809 79.8313 9.18196 79.8313 9.78H81.8313C81.8313 8.75804 81.5213 7.8391 80.8395 7.11463L79.3831 8.48536ZM79.8313 9.78C79.8313 10.2766 79.6734 10.6486 79.3591 10.9629L80.7734 12.3771C81.4791 11.6714 81.8313 10.7834 81.8313 9.78H79.8313ZM79.3381 10.9846C79.0695 11.2699 78.7152 11.435 78.1763 11.435V13.435C79.1973 13.435 80.103 13.0901 80.7945 12.3554L79.3381 10.9846ZM78.1763 11.435C77.6376 11.435 77.2546 11.2691 76.9484 10.9629L75.5341 12.3771C76.2479 13.0909 77.1549 13.435 78.1763 13.435V11.435ZM76.9695 10.9846C76.6772 10.6741 76.5213 10.2951 76.5213 9.78H74.5213C74.5213 10.7649 74.8454 11.6459 75.5131 12.3554L76.9695 10.9846ZM76.5213 9.78C76.5213 9.22331 76.6844 8.83318 76.9695 8.53036L75.5131 7.15963C74.8381 7.87681 74.5213 8.77668 74.5213 9.78H76.5213ZM76.9683 8.53162C77.279 8.20263 77.6559 8.035 78.1763 8.035V6.035C77.1366 6.035 76.2235 6.40736 75.5142 7.15837L76.9683 8.53162Z" fill="white"/>
</svg>
